<svg width="101" height="30" viewBox="0 0 101 30" version="1.1" xmlns="http://www.w3.org/2000/svg" xmlns:xlink="http://www.w3.org/1999/xlink">
<g id="Canvas" fill="none">
<g id="Download_on_the_App_Store_Badge_US-UK_135x40">
<g id="Group">
<g id="Vector">
<path d="M 97.4066 30L 3.53799 30C 1.58757 30 0 28.404 0 26.4502L 0 3.5445C 0 1.59 1.58757 0 3.53799 0L 97.4066 0C 99.3563 0 101 1.59 101 3.5445L 101 26.4502C 101 28.404 99.3563 30 97.4066 30Z" fill="#A6A6A6"/>
</g>
<g id="Vector_2">
<path d="M 99.6099 25.7835C 99.6099 27.3705 98.3276 28.656 96.7415 28.656L 2.87214 28.656C 1.28681 28.656 -1.07023e-08 27.3705 -1.07023e-08 25.7835L -1.07023e-08 2.87625C -1.07023e-08 1.29 1.28681 -1.07288e-08 2.87214 -1.07288e-08L 96.7408 -1.07288e-08C 98.3276 -1.07288e-08 99.6092 1.29 99.6092 2.87625L 99.6099 25.7835Z" transform="translate(0.665894 0.667969)" fill="black"/>
</g>
<g id="Group_2">
<g id="Group_3">
<g id="Vector_3">
<path d="M 12.97 5.55983C 12.9483 3.14258 14.9443 1.96658 15.0356 1.91183C 13.9052 0.259578 12.153 0.0338277 11.5373 0.0158277C 10.0657 -0.139422 8.63819 0.898578 7.88855 0.898578C 7.12394 0.898578 5.96955 0.0308277 4.72538 0.0563277C 3.12434 0.0810777 1.62655 1.01033 0.805079 2.45333C -0.890225 5.39558 0.374146 9.71933 1.99838 12.0976C 2.81086 13.2623 3.76026 14.5628 5.00294 14.5171C 6.21868 14.4668 6.67281 13.7401 8.13992 13.7401C 9.59358 13.7401 10.02 14.5171 11.2874 14.4878C 12.5922 14.4668 13.4136 13.3178 14.1977 12.1426C 15.1366 10.8076 15.5137 9.49283 15.5286 9.42533C 15.498 9.41483 12.9947 8.45708 12.97 5.55983Z" transform="translate(9.5701 9.27783)" fill="white"/>
</g>
<g id="Vector_4">
<path d="M 2.85912 3.06675C 3.513 2.247 3.96039 1.13175 3.8362 5.72205e-09C 2.88979 0.042 1.70622 0.65625 1.02466 1.458C 0.421652 2.1645 -0.117015 3.3225 0.0221406 4.4115C 1.08526 4.491 2.17681 3.87375 2.85912 3.06675Z" transform="translate(17.2867 4.6626)" fill="white"/>
</g>
</g>
</g>
<g id="Group_4">
<g id="Vector_5">
<path d="M 8.40545 9.981L 6.7064 9.981L 5.7757 7.04925L 2.54071 7.04925L 1.65415 9.981L -1.14158e-07 9.981L 3.20507 -6.40869e-07L 5.18467 -6.40869e-07L 8.40545 9.981ZM 5.49515 5.81925L 4.65348 3.213C 4.56445 2.94675 4.39761 2.31975 4.15147 1.33275L 4.12155 1.33275C 4.02354 1.75725 3.86568 2.38425 3.64872 3.213L 2.82201 5.81925L 5.49515 5.81925Z" transform="translate(31.7289 13.6465)" fill="white"/>
</g>
<g id="Vector_6">
<path d="M 6.91364 3.65775C 6.91364 4.88175 6.5837 5.84925 5.92384 6.5595C 5.3328 7.19175 4.59887 7.5075 3.72278 7.5075C 2.77713 7.5075 2.09781 7.167 1.68408 6.486L 1.65416 6.486L 1.65416 10.2773L 0.0591037 10.2773L 0.0591037 2.517C 0.0591037 1.7475 0.0389048 0.957751 1.07309e-06 0.147751L 1.40278 0.147751L 1.49181 1.2885L 1.52173 1.2885C 2.05367 0.429001 2.86092 3.31879e-07 3.94424 3.31879e-07C 4.79114 3.31879e-07 5.49814 0.33525 6.06374 1.0065C 6.63084 1.6785 6.91364 2.562 6.91364 3.65775ZM 5.28866 3.71625C 5.28866 3.01575 5.13155 2.43825 4.81583 1.98375C 4.47093 1.50975 4.00783 1.27275 3.42727 1.27275C 3.03374 1.27275 2.67613 1.40475 2.35667 1.665C 2.03646 1.9275 1.82698 2.27025 1.72897 2.69475C 1.67959 2.89275 1.6549 3.05475 1.6549 3.18225L 1.6549 4.38225C 1.6549 4.90575 1.81501 5.3475 2.13522 5.70825C 2.45542 6.069 2.87139 6.249 3.38313 6.249C 3.98389 6.249 4.45148 6.0165 4.7859 5.553C 5.12108 5.08875 5.28866 4.47675 5.28866 3.71625Z" transform="translate(41.4631 16.2832)" fill="white"/>
</g>
<g id="Vector_7">
<path d="M 6.91289 3.65775C 6.91289 4.88175 6.58296 5.84925 5.92234 6.5595C 5.33205 7.19175 4.59812 7.5075 3.72204 7.5075C 2.77638 7.5075 2.09706 7.167 1.68408 6.486L 1.65415 6.486L 1.65415 10.2773L 0.0591052 10.2773L 0.0591052 2.517C 0.0591052 1.7475 0.0389034 0.957751 -2.7398e-07 0.147751L 1.40278 0.147751L 1.49181 1.2885L 1.52173 1.2885C 2.05292 0.429001 2.86017 3.31879e-07 3.94424 3.31879e-07C 4.79039 3.31879e-07 5.49739 0.33525 6.06449 1.0065C 6.62934 1.6785 6.91289 2.562 6.91289 3.65775ZM 5.28791 3.71625C 5.28791 3.01575 5.13005 2.43825 4.81433 1.98375C 4.46943 1.50975 4.00783 1.27275 3.42652 1.27275C 3.03225 1.27275 2.67538 1.40475 2.35517 1.665C 2.03496 1.9275 1.82623 2.27025 1.72822 2.69475C 1.67959 2.89275 1.65415 3.05475 1.65415 3.18225L 1.65415 4.38225C 1.65415 4.90575 1.81426 5.3475 2.13297 5.70825C 2.45318 6.06825 2.86915 6.249 3.38238 6.249C 3.98314 6.249 4.45074 6.0165 4.78516 5.553C 5.12033 5.08875 5.28791 4.47675 5.28791 3.71625Z" transform="translate(49.7211 16.2832)" fill="white"/>
</g>
<g id="Vector_8">
<path d="M 6.17671 7.32825C 6.17671 8.17725 5.88269 8.868 5.2924 9.40125C 4.64376 9.984 3.74074 10.275 2.58036 10.275C 1.50902 10.275 0.650139 10.068 -2.14618e-06 9.65325L 0.369585 8.3205C 1.06985 8.745 1.8382 8.958 2.67538 8.958C 3.27614 8.958 3.74373 8.8215 4.07965 8.55C 4.41407 8.2785 4.58091 7.914 4.58091 7.4595C 4.58091 7.0545 4.44325 6.71325 4.16718 6.4365C 3.89261 6.15975 3.434 5.9025 2.79358 5.66475C 1.0504 5.013 0.179557 4.05825 0.179557 2.80275C 0.179557 1.98225 0.484801 1.3095 1.09604 0.786C 1.70503 0.26175 2.51752 -4.11987e-07 3.5335 -4.11987e-07C 4.43951 -4.11987e-07 5.19215 0.15825 5.79291 0.474L 5.39414 1.7775C 4.83303 1.4715 4.19861 1.3185 3.48861 1.3185C 2.9275 1.3185 2.48909 1.45725 2.17487 1.73325C 1.90928 1.98 1.7761 2.28075 1.7761 2.637C 1.7761 3.0315 1.92798 3.35775 2.23322 3.61425C 2.49881 3.85125 2.98137 4.10775 3.68164 4.3845C 4.53827 4.73025 5.16746 5.1345 5.57221 5.598C 5.97546 6.06 6.17671 6.63825 6.17671 7.32825Z" transform="translate(59.6895 13.5005)" fill="white"/>
</g>
<g id="Vector_9">
<path d="M 4.37218 2.99325L 2.61403 2.99325L 2.61403 6.4875C 2.61403 7.37625 2.92376 7.82025 3.54473 7.82025C 3.82977 7.82025 4.06619 7.7955 4.25322 7.746L 4.29736 8.96025C 3.98314 9.078 3.56942 9.13725 3.05693 9.13725C 2.42699 9.13725 1.93471 8.9445 1.57934 8.55975C 1.22547 8.17425 1.04741 7.52775 1.04741 6.6195L 1.04741 2.99175L 2.46582e-06 2.99175L 2.46582e-06 1.79175L 1.04741 1.79175L 1.04741 0.474L 2.61403 1.48773e-07L 2.61403 1.79175L 4.37218 1.79175L 4.37218 2.99325Z" transform="translate(66.7677 14.6377)" fill="white"/>
</g>
<g id="Vector_10">
<path d="M 7.03185 3.68625C 7.03185 4.7925 6.71613 5.70075 6.08619 6.411C 5.42557 7.14225 4.54874 7.50675 3.4557 7.50675C 2.40231 7.50675 1.56363 7.1565 0.938176 6.456C 0.312724 5.7555 -1.3699e-07 4.87125 -1.3699e-07 3.8055C -1.3699e-07 2.69025 0.321703 1.77675 0.967355 1.0665C 1.61151 0.355501 2.48086 -8.01086e-08 3.5739 -8.01086e-08C 4.6273 -8.01086e-08 5.47495 0.35025 6.11461 1.0515C 6.7266 1.73175 7.03185 2.61 7.03185 3.68625ZM 5.37694 3.738C 5.37694 3.07425 5.23554 2.505 4.949 2.03025C 4.61458 1.45575 4.13651 1.16925 3.51704 1.16925C 2.87588 1.16925 2.38884 1.4565 2.05442 2.03025C 1.76788 2.50575 1.62648 3.084 1.62648 3.768C 1.62648 4.43175 1.76788 5.001 2.05442 5.475C 2.39931 6.0495 2.88112 6.336 3.50283 6.336C 4.11182 6.336 4.58989 6.0435 4.93479 5.46C 5.22881 4.97625 5.37694 4.401 5.37694 3.738Z" transform="translate(72.0405 16.2837)" fill="white"/>
</g>
<g id="Vector_11">
<path d="M 3.84099 1.554C 3.68314 1.52475 3.5148 1.50975 3.33824 1.50975C 2.77712 1.50975 2.3432 1.722 2.03795 2.14725C 1.77236 2.52225 1.63919 2.99625 1.63919 3.5685L 1.63919 7.34475L 0.0448867 7.34475L 0.0598529 2.41425C 0.0598529 1.58475 0.0396515 0.8295 -3.65307e-07 0.1485L 1.38931 0.1485L 1.44766 1.5255L 1.49181 1.5255C 1.66014 1.05225 1.92573 0.67125 2.28933 0.3855C 2.6447 0.12825 3.0285 3.31879e-07 3.44223 3.31879e-07C 3.58961 3.31879e-07 3.72279 0.0105 3.84099 0.02925L 3.84099 1.554Z" transform="translate(80.4161 16.2832)" fill="white"/>
</g>
<g id="Vector_12">
<path d="M 6.38021 3.41925C 6.38021 3.70575 6.36151 3.94725 6.32185 4.1445L 1.5367 4.1445C 1.5554 4.8555 1.78658 5.39925 2.23098 5.77425C 2.63423 6.1095 3.15569 6.2775 3.79611 6.2775C 4.5046 6.2775 5.151 6.16425 5.73231 5.937L 5.98219 7.047C 5.30288 7.344 4.50086 7.49175 3.5754 7.49175C 2.46215 7.49175 1.58832 7.16325 0.952393 6.507C 0.317964 5.85075 -1.23291e-06 4.9695 -1.23291e-06 3.864C -1.23291e-06 2.77875 0.295521 1.875 0.887306 1.15425C 1.50677 0.38475 2.34395 5.95093e-07 3.39734 5.95093e-07C 4.43203 5.95093e-07 5.21534 0.38475 5.74727 1.15425C 6.16848 1.7655 6.38021 2.5215 6.38021 3.41925ZM 4.85922 3.0045C 4.8697 2.5305 4.7657 2.121 4.54949 1.77525C 4.27342 1.3305 3.84922 1.1085 3.27839 1.1085C 2.75693 1.1085 2.33273 1.32525 2.00878 1.76025C 1.74319 2.106 1.58533 2.52075 1.5367 3.00375L 4.85922 3.00375L 4.85922 3.0045Z" transform="translate(85.0105 16.2695)" fill="white"/>
</g>
</g>
<g id="Group_5">
<g id="Group_6">
<g id="Vector_13">
<path d="M 4.02055 2.37225C 4.02055 3.255 3.75645 3.9195 3.22901 4.36575C 2.74047 4.7775 2.04619 4.98375 1.14691 4.98375C 0.701015 4.98375 0.319458 4.96425 -9.81762e-07 4.92525L -9.81762e-07 0.102C 0.416718 0.0344999 0.865607 1.45912e-07 1.35041 1.45912e-07C 2.20704 1.45912e-07 2.85269 0.18675 3.28811 0.56025C 3.7759 0.9825 4.02055 1.58625 4.02055 2.37225ZM 3.19384 2.394C 3.19384 1.82175 3.04272 1.383 2.74047 1.077C 2.43822 0.77175 1.99681 0.61875 1.4155 0.61875C 1.16861 0.61875 0.958377 0.63525 0.784059 0.66975L 0.784059 4.3365C 0.88057 4.3515 1.05713 4.35825 1.31375 4.35825C 1.91376 4.35825 2.37687 4.191 2.70306 3.8565C 3.02925 3.522 3.19384 3.0345 3.19384 2.394Z" transform="translate(32.676 5.13477)" fill="white"/>
</g>
<g id="Vector_14">
<path d="M 3.4542 1.8105C 3.4542 2.35425 3.29933 2.79975 2.9896 3.14925C 2.6649 3.5085 2.23472 3.68775 1.69755 3.68775C 1.17983 3.68775 0.767601 3.516 0.460112 3.171C 0.153371 2.82675 -1.3699e-07 2.3925 -1.3699e-07 1.869C -1.3699e-07 1.3215 0.157858 0.87225 0.475073 0.5235C 0.792287 0.17475 1.21873 1.08719e-07 1.7559 1.08719e-07C 2.27362 1.08719e-07 2.68959 0.17175 3.00456 0.516C 3.30382 0.8505 3.4542 1.2825 3.4542 1.8105ZM 2.64096 1.836C 2.64096 1.50975 2.57064 1.23 2.43073 0.99675C 2.26614 0.71475 2.03197 0.57375 1.72748 0.57375C 1.4125 0.57375 1.1731 0.71475 1.0085 0.99675C 0.867851 1.23 0.798275 1.51425 0.798275 1.85025C 0.798275 2.1765 0.868599 2.45625 1.0085 2.6895C 1.17833 2.9715 1.41475 3.1125 1.71999 3.1125C 2.01925 3.1125 2.25417 2.96925 2.42325 2.682C 2.56839 2.44425 2.64096 2.16225 2.64096 1.836Z" transform="translate(37.6257 6.46729)" fill="white"/>
</g>
<g id="Vector_15">
<path d="M 5.10985 -1.02997e-07L 4.00633 3.5355L 3.28811 3.5355L 2.83099 2.00025C 2.71503 1.617 2.62076 1.236 2.54744 0.858L 2.53323 0.858C 2.46515 1.2465 2.37088 1.62675 2.24968 2.00025L 1.76413 3.5355L 1.03768 3.5355L 1.02743e-06 -1.02997e-07L 0.805756 -1.02997e-07L 1.20452 1.68075C 1.30103 2.07825 1.38033 2.457 1.44393 2.8155L 1.45814 2.8155C 1.5165 2.52 1.61301 2.1435 1.74917 1.68825L 2.24968 0.0007502L 2.8886 0.0007502L 3.36816 1.65225C 3.48413 2.055 3.57839 2.44275 3.65096 2.81625L 3.67266 2.81625C 3.72578 2.4525 3.80583 2.06475 3.91207 1.65225L 4.34001 0.0007502L 5.10985 0.0007502L 5.10985 -1.02997e-07Z" transform="translate(41.8476 6.53906)" fill="white"/>
</g>
<g id="Vector_16">
<path d="M 3.09135 3.60975L 2.30729 3.60975L 2.30729 1.58475C 2.30729 0.96075 2.07087 0.64875 1.59655 0.64875C 1.36387 0.64875 1.17609 0.73425 1.0302 0.906C 0.885808 1.07775 0.812489 1.28025 0.812489 1.512L 0.812489 3.609L 0.0284268 3.609L 0.0284268 1.0845C 0.0284268 0.774 0.0187051 0.43725 1.41556e-06 0.07275L 0.689044 0.07275L 0.725706 0.6255L 0.747402 0.6255C 0.838676 0.45375 0.974838 0.312 1.15365 0.19875C 1.36612 0.0667502 1.60403 -8.58307e-08 1.86438 -8.58307e-08C 2.19357 -8.58307e-08 2.46739 0.1065 2.6851 0.32025C 2.95593 0.582 3.09135 0.97275 3.09135 1.49175L 3.09135 3.60975Z" transform="translate(47.9308 6.46484)" fill="white"/>
</g>
<g id="Vector_17">
<path d="M 0.783309 5.15775L 2.7398e-07 5.15775L 2.7398e-07 1.74522e-07L 0.783309 1.74522e-07L 0.783309 5.15775Z" transform="translate(52.4009 4.91699)" fill="white"/>
</g>
<g id="Vector_18">
<path d="M 3.4542 1.8105C 3.4542 2.35425 3.29933 2.79975 2.9896 3.14925C 2.6649 3.5085 2.23397 3.68775 1.69755 3.68775C 1.17908 3.68775 0.766849 3.516 0.460109 3.171C 0.153368 2.82675 -8.67603e-07 2.3925 -8.67603e-07 1.869C -8.67603e-07 1.3215 0.15786 0.87225 0.475075 0.5235C 0.79229 0.17475 1.21873 1.08719e-07 1.75516 1.08719e-07C 2.27362 1.08719e-07 2.68884 0.17175 3.00456 0.516C 3.30382 0.8505 3.4542 1.2825 3.4542 1.8105ZM 2.64021 1.836C 2.64021 1.50975 2.56989 1.23 2.42999 0.99675C 2.26614 0.71475 2.03122 0.57375 1.72747 0.57375C 1.41175 0.57375 1.17235 0.71475 1.0085 0.99675C 0.867851 1.23 0.798274 1.51425 0.798274 1.85025C 0.798274 2.1765 0.868599 2.45625 1.0085 2.6895C 1.17833 2.9715 1.41475 3.1125 1.71999 3.1125C 2.01925 3.1125 2.25342 2.96925 2.4225 2.682C 2.56839 2.44425 2.64021 2.16225 2.64021 1.836Z" transform="translate(54.3461 6.46729)" fill="white"/>
</g>
<g id="Vector_19">
<path d="M 2.89533 3.6075L 2.19133 3.6075L 2.13297 3.20025L 2.11127 3.20025C 1.87037 3.525 1.52697 3.68775 1.08107 3.68775C 0.748147 3.68775 0.478817 3.5805 0.276068 3.3675C 0.092024 3.174 -6.8495e-07 2.93325 -6.8495e-07 2.6475C -6.8495e-07 2.2155 0.179555 1.88625 0.54091 1.65825C 0.901518 1.43025 1.40877 1.3185 2.0619 1.32375L 2.0619 1.25775C 2.0619 0.792 1.818 0.5595 1.32946 0.5595C 0.98157 0.5595 0.674832 0.64725 0.409988 0.82125L 0.250628 0.30525C 0.578317 0.102 0.983069 1.08719e-07 1.46039 1.08719e-07C 2.38211 1.08719e-07 2.84446 0.4875 2.84446 1.4625L 2.84446 2.7645C 2.84446 3.11775 2.86167 3.399 2.89533 3.6075ZM 2.08135 2.3925L 2.08135 1.84725C 1.21649 1.83225 0.784062 2.07 0.784062 2.55975C 0.784062 2.74425 0.833437 2.88225 0.934437 2.9745C 1.03544 3.06675 1.16412 3.1125 1.31749 3.1125C 1.48956 3.1125 1.65041 3.05775 1.79705 2.949C 1.94444 2.8395 2.03496 2.70075 2.06863 2.5305C 2.07686 2.49225 2.08135 2.44575 2.08135 2.3925Z" transform="translate(58.6996 6.46729)" fill="white"/>
</g>
<g id="Vector_20">
<path d="M 3.36667 5.15775L 2.67089 5.15775L 2.63423 4.59L 2.61253 4.59C 2.39033 5.022 2.01177 5.238 1.47984 5.238C 1.05489 5.238 0.701015 5.07075 0.420459 4.73625C 0.139904 4.40175 2.7398e-06 3.9675 2.7398e-06 3.43425C 2.7398e-06 2.862 0.151877 2.3985 0.457121 2.0445C 0.75264 1.7145 1.11474 1.5495 1.54567 1.5495C 2.01925 1.5495 2.35068 1.70925 2.53922 2.0295L 2.55418 2.0295L 2.55418 1.74522e-07L 3.33899 1.74522e-07L 3.33899 4.20525C 3.33899 4.5495 3.34797 4.86675 3.36667 5.15775ZM 2.55418 3.66675L 2.55418 3.07725C 2.55418 2.97525 2.54669 2.89275 2.53248 2.82975C 2.48834 2.64075 2.39333 2.48175 2.24893 2.3535C 2.10304 2.22525 1.92723 2.16075 1.72448 2.16075C 1.43195 2.16075 1.20302 2.277 1.03469 2.51025C 0.867851 2.7435 0.783312 3.04125 0.783312 3.405C 0.783312 3.7545 0.863362 4.038 1.02421 4.25625C 1.19404 4.48875 1.42298 4.605 1.70952 4.605C 1.96688 4.605 2.17262 4.50825 2.32899 4.314C 2.48011 4.13475 2.55418 3.91875 2.55418 3.66675Z" transform="translate(62.6835 4.91699)" fill="white"/>
</g>
<g id="Vector_21">
<path d="M 3.4542 1.8105C 3.4542 2.35425 3.29933 2.79975 2.9896 3.14925C 2.6649 3.5085 2.23547 3.68775 1.69755 3.68775C 1.18058 3.68775 0.76835 3.516 0.460113 3.171C 0.153372 2.82675 -2.46582e-06 2.3925 -2.46582e-06 1.869C -2.46582e-06 1.3215 0.157858 0.87225 0.475073 0.5235C 0.792288 0.17475 1.21873 1.08719e-07 1.75665 1.08719e-07C 2.27362 1.08719e-07 2.69034 0.17175 3.00457 0.516C 3.30382 0.8505 3.4542 1.2825 3.4542 1.8105ZM 2.64171 1.836C 2.64171 1.50975 2.57138 1.23 2.43148 0.99675C 2.26614 0.71475 2.03272 0.57375 1.72748 0.57375C 1.41325 0.57375 1.17384 0.71475 1.0085 0.99675C 0.867849 1.23 0.798273 1.51425 0.798273 1.85025C 0.798273 2.1765 0.868597 2.45625 1.0085 2.6895C 1.17833 2.9715 1.41475 3.1125 1.71999 3.1125C 2.01925 3.1125 2.25492 2.96925 2.424 2.682C 2.56839 2.44425 2.64171 2.16225 2.64171 1.836Z" transform="translate(69.3016 6.46729)" fill="white"/>
</g>
<g id="Vector_22">
<path d="M 3.0906 3.60975L 2.30729 3.60975L 2.30729 1.58475C 2.30729 0.96075 2.07088 0.64875 1.5958 0.64875C 1.36313 0.64875 1.17534 0.73425 1.0302 0.906C 0.885058 1.07775 0.812487 1.28025 0.812487 1.512L 0.812487 3.609L 0.0276826 3.609L 0.0276826 1.0845C 0.0276826 0.774 0.0187029 0.43725 -8.2194e-07 0.07275L 0.688294 0.07275L 0.724956 0.6255L 0.746652 0.6255C 0.838674 0.45375 0.974837 0.312 1.1529 0.19875C 1.36612 0.0667502 1.60328 -8.58307e-08 1.86439 -8.58307e-08C 2.19282 -8.58307e-08 2.46664 0.1065 2.68435 0.32025C 2.95593 0.582 3.0906 0.97275 3.0906 1.49175L 3.0906 3.60975Z" transform="translate(73.8811 6.46484)" fill="white"/>
</g>
<g id="Vector_23">
<path d="M 2.14793 1.46925L 1.28457 1.46925L 1.28457 3.18675C 1.28457 3.62325 1.43794 3.8415 1.74169 3.8415C 1.88234 3.8415 1.99905 3.8295 2.09107 3.80475L 2.11127 4.401C 1.95641 4.4595 1.75291 4.48875 1.50228 4.48875C 1.19255 4.48875 0.951642 4.39425 0.777323 4.20525C 0.602256 4.01625 0.515472 3.69825 0.515472 3.252L 0.515472 1.46925L 1.82653e-06 1.46925L 1.82653e-06 0.8805L 0.515472 0.8805L 0.515472 0.2325L 1.28382 5.72205e-08L 1.28382 0.87975L 2.14718 0.87975L 2.14718 1.46925L 2.14793 1.46925Z" transform="translate(80.1004 5.65869)" fill="white"/>
</g>
<g id="Vector_24">
<path d="M 3.06292 5.15775L 2.27811 5.15775L 2.27811 3.14775C 2.27811 2.514 2.0417 2.19675 1.56812 2.19675C 1.20452 2.19675 0.956133 2.3805 0.81997 2.748C 0.796778 2.82525 0.783308 2.91975 0.783308 3.03075L 0.783308 5.157L -4.56633e-07 5.157L -4.56633e-07 1.74522e-07L 0.783308 1.74522e-07L 0.783308 2.13075L 0.798275 2.13075C 1.04516 1.743 1.39904 1.5495 1.85765 1.5495C 2.18235 1.5495 2.45093 1.656 2.66415 1.86975C 2.92975 2.136 3.06292 2.532 3.06292 3.0555L 3.06292 5.15775Z" transform="translate(83.3362 4.91699)" fill="white"/>
</g>
<g id="Vector_25">
<path d="M 3.13549 1.67925C 3.13549 1.82025 3.12501 1.93875 3.10631 2.0355L 0.754883 2.0355C 0.765357 2.385 0.87758 2.65125 1.09529 2.83575C 1.2943 3.00075 1.55091 3.08325 1.86514 3.08325C 2.21302 3.08325 2.53024 3.02775 2.81603 2.916L 2.93873 3.462C 2.6043 3.6075 2.21078 3.68025 1.75516 3.68025C 1.20901 3.68025 0.778821 3.519 0.467592 3.1965C 0.154866 2.874 -8.67603e-07 2.44125 -8.67603e-07 1.89825C -8.67603e-07 1.365 0.144392 0.921 0.435422 0.567C 0.73917 0.189 1.14991 2.40326e-07 1.66837 2.40326e-07C 2.17562 2.40326e-07 2.56091 0.189 2.82127 0.567C 3.0315 0.867 3.13549 1.23825 3.13549 1.67925ZM 2.38734 1.476C 2.39333 1.24275 2.3417 1.04175 2.23547 0.87225C 2.0993 0.654 1.89207 0.5445 1.61151 0.5445C 1.35564 0.5445 1.14691 0.651 0.987554 0.86475C 0.857377 1.035 0.78032 1.23825 0.754883 1.476L 2.38734 1.476Z" transform="translate(87.5452 6.46045)" fill="white"/>
</g>
</g>
</g>
</g>
</g>
</g>
</svg>

