<svg width="101" height="30" viewBox="0 0 101 30" version="1.1" xmlns="http://www.w3.org/2000/svg" xmlns:xlink="http://www.w3.org/1999/xlink">
<g id="Canvas" fill="none">
<g id="google-play-badge">
<g id="Group">
<g id="Group_2">
<g id="Vector">
<path d="M 97.2593 30L 3.74074 30C 1.64593 30 0 28.275 0 26.25L 0 3.75C 0 1.65 1.72074 0 3.74074 0L 97.2593 0C 99.3541 0 101 1.725 101 3.75L 101 26.25C 101 28.35 99.3541 30 97.2593 30Z" fill="black"/>
</g>
</g>
<g id="Vector_2">
<path d="M 97.2593 0.6C 98.98 0.6 100.401 2.025 100.401 3.75L 100.401 26.25C 100.401 27.975 98.98 29.4 97.2593 29.4L 3.74074 29.4C 2.02 29.4 0.598519 27.975 0.598519 26.25L 0.598519 3.75C 0.598519 2.025 2.02 0.6 3.74074 0.6L 97.2593 0.6ZM 97.2593 0L 3.74074 0C 1.72074 0 0 1.725 0 3.75L 0 26.25C 0 28.35 1.72074 30 3.74074 30L 97.2593 30C 99.3541 30 101 28.275 101 26.25L 101 3.75C 101 1.725 99.3541 0 97.2593 0Z" fill="#A6A6A6"/>
</g>
<g id="Vector_3">
<path d="M 4.48889 2.475C 4.48889 3.075 4.33926 3.6 3.96519 3.975C 3.5163 4.425 2.99259 4.65 2.31926 4.65C 1.64593 4.65 1.12222 4.425 0.673333 3.975C 0.224444 3.525 1.14158e-06 3 1.14158e-06 2.325C 1.14158e-06 1.65 0.224444 1.125 0.673333 0.675C 1.12222 0.225 1.64593 7.15256e-08 2.31926 7.15256e-08C 2.61852 7.15256e-08 2.91778 0.0749999 3.21704 0.225C 3.5163 0.375 3.74074 0.525 3.89037 0.75L 3.51629 1.125C 3.21704 0.75 2.84296 0.6 2.31926 0.6C 1.87037 0.6 1.42148 0.75 1.12222 1.125C 0.748149 1.425 0.598519 1.875 0.598519 2.4C 0.598519 2.925 0.748149 3.375 1.12222 3.675C 1.4963 3.975 1.87037 4.2 2.31926 4.2C 2.84296 4.2 3.21704 4.05 3.59111 3.675C 3.81556 3.45 3.96519 3.15 3.96519 2.775L 2.31926 2.775L 2.31926 2.175L 4.48889 2.175C 4.48889 2.25 4.48889 2.4 4.48889 2.475Z" transform="translate(30.9735 5.1748)" fill="white"/>
<path d="M 4.48889 2.475C 4.48889 3.075 4.33926 3.6 3.96519 3.975C 3.5163 4.425 2.99259 4.65 2.31926 4.65C 1.64593 4.65 1.12222 4.425 0.673333 3.975C 0.224444 3.525 1.14158e-06 3 1.14158e-06 2.325C 1.14158e-06 1.65 0.224444 1.125 0.673333 0.675C 1.12222 0.225 1.64593 7.15256e-08 2.31926 7.15256e-08C 2.61852 7.15256e-08 2.91778 0.0749999 3.21704 0.225C 3.5163 0.375 3.74074 0.525 3.89037 0.75L 3.51629 1.125C 3.21704 0.75 2.84296 0.6 2.31926 0.6C 1.87037 0.6 1.42148 0.75 1.12222 1.125C 0.748149 1.425 0.598519 1.875 0.598519 2.4C 0.598519 2.925 0.748149 3.375 1.12222 3.675C 1.4963 3.975 1.87037 4.2 2.31926 4.2C 2.84296 4.2 3.21704 4.05 3.59111 3.675C 3.81556 3.45 3.96519 3.15 3.96519 2.775L 2.31926 2.775L 2.31926 2.175L 4.48889 2.175C 4.48889 2.25 4.48889 2.4 4.48889 2.475Z" stroke-width="0.2" stroke-miterlimit="10" transform="translate(30.9735 5.1748)" stroke="white"/>
</g>
<g id="Vector_4">
<path d="M 2.61852 0.525L 0.598518 0.525L 0.598518 1.95L 2.46889 1.95L 2.46889 2.475L 0.598518 2.475L 0.598518 3.9L 2.61852 3.9L 2.61852 4.5L 0 4.5L 0 0L 2.61852 0L 2.61852 0.525Z" transform="translate(36.2852 5.25)" fill="white"/>
<path d="M 2.61852 0.525L 0.598518 0.525L 0.598518 1.95L 2.46889 1.95L 2.46889 2.475L 0.598518 2.475L 0.598518 3.9L 2.61852 3.9L 2.61852 4.5L 0 4.5L 0 0L 2.61852 0L 2.61852 0.525Z" stroke-width="0.2" stroke-miterlimit="10" transform="translate(36.2852 5.25)" stroke="white"/>
</g>
<g id="Vector_5">
<path d="M 1.87037 4.5L 1.27185 4.5L 1.27185 0.525L -5.70792e-07 0.525L -5.70792e-07 0L 3.14222 0L 3.14222 0.525L 1.87037 0.525L 1.87037 4.5Z" transform="translate(39.5023 5.25)" fill="white"/>
<path d="M 1.87037 4.5L 1.27185 4.5L 1.27185 0.525L -5.70792e-07 0.525L -5.70792e-07 0L 3.14222 0L 3.14222 0.525L 1.87037 0.525L 1.87037 4.5Z" stroke-width="0.2" stroke-miterlimit="10" transform="translate(39.5023 5.25)" stroke="white"/>
</g>
<g id="Vector_6">
<path d="M 1.14158e-06 4.5L 1.14158e-06 0L 0.598519 0L 0.598519 4.5L 1.14158e-06 4.5Z" transform="translate(44.8141 5.25)" fill="white"/>
<path d="M 1.14158e-06 4.5L 1.14158e-06 0L 0.598519 0L 0.598519 4.5L 1.14158e-06 4.5Z" stroke-width="0.2" stroke-miterlimit="10" transform="translate(44.8141 5.25)" stroke="white"/>
</g>
<g id="Vector_7">
<path d="M 1.87037 4.5L 1.27185 4.5L 1.27185 0.525L -1.14158e-06 0.525L -1.14158e-06 0L 3.06741 0L 3.06741 0.525L 1.79556 0.525L 1.79556 4.5L 1.87037 4.5Z" transform="translate(46.0859 5.25)" fill="white"/>
<path d="M 1.87037 4.5L 1.27185 4.5L 1.27185 0.525L -1.14158e-06 0.525L -1.14158e-06 0L 3.06741 0L 3.06741 0.525L 1.79556 0.525L 1.79556 4.5L 1.87037 4.5Z" stroke-width="0.2" stroke-miterlimit="10" transform="translate(46.0859 5.25)" stroke="white"/>
</g>
<g id="Vector_8">
<path d="M 3.96518 3.975C 3.5163 4.425 2.99259 4.65 2.31926 4.65C 1.64593 4.65 1.12222 4.425 0.673331 3.975C 0.224442 3.525 2.28317e-06 3 2.28317e-06 2.325C 2.28317e-06 1.65 0.224442 1.125 0.673331 0.675C 1.12222 0.225 1.64593 7.15256e-08 2.31926 7.15256e-08C 2.99259 7.15256e-08 3.5163 0.225 3.96518 0.675C 4.41407 1.125 4.63852 1.65 4.63852 2.325C 4.63852 3 4.41407 3.525 3.96518 3.975ZM 1.12222 3.6C 1.42148 3.9 1.87037 4.125 2.31926 4.125C 2.76815 4.125 3.21704 3.975 3.5163 3.6C 3.81556 3.3 4.04 2.85 4.04 2.325C 4.04 1.8 3.89037 1.35 3.5163 1.05C 3.21704 0.75 2.76815 0.525 2.31926 0.525C 1.87037 0.525 1.42148 0.675 1.12222 1.05C 0.822965 1.35 0.598517 1.8 0.598517 2.325C 0.598517 2.85 0.748151 3.3 1.12222 3.6Z" transform="translate(51.0986 5.1748)" fill="white"/>
<path d="M 3.96518 3.975C 3.5163 4.425 2.99259 4.65 2.31926 4.65C 1.64593 4.65 1.12222 4.425 0.673331 3.975C 0.224442 3.525 2.28317e-06 3 2.28317e-06 2.325C 2.28317e-06 1.65 0.224442 1.125 0.673331 0.675C 1.12222 0.225 1.64593 7.15256e-08 2.31926 7.15256e-08C 2.99259 7.15256e-08 3.5163 0.225 3.96518 0.675C 4.41407 1.125 4.63852 1.65 4.63852 2.325C 4.63852 3 4.41407 3.525 3.96518 3.975ZM 1.12222 3.6C 1.42148 3.9 1.87037 4.125 2.31926 4.125C 2.76815 4.125 3.21704 3.975 3.5163 3.6C 3.81556 3.3 4.04 2.85 4.04 2.325C 4.04 1.8 3.89037 1.35 3.5163 1.05C 3.21704 0.75 2.76815 0.525 2.31926 0.525C 1.87037 0.525 1.42148 0.675 1.12222 1.05C 0.822965 1.35 0.598517 1.8 0.598517 2.325C 0.598517 2.85 0.748151 3.3 1.12222 3.6Z" stroke-width="0.2" stroke-miterlimit="10" transform="translate(51.0986 5.1748)" stroke="white"/>
</g>
<g id="Vector_9">
<path d="M -1.14158e-06 4.5L -1.14158e-06 0L 0.673333 0L 2.84296 3.525L 2.84296 2.625L 2.84296 0L 3.44148 0L 3.44148 4.5L 2.84296 4.5L 0.523706 0.825L 0.523706 1.725L 0.523706 4.5L -1.14158e-06 4.5Z" transform="translate(56.56 5.25)" fill="white"/>
<path d="M -1.14158e-06 4.5L -1.14158e-06 0L 0.673333 0L 2.84296 3.525L 2.84296 2.625L 2.84296 0L 3.44148 0L 3.44148 4.5L 2.84296 4.5L 0.523706 0.825L 0.523706 1.725L 0.523706 4.5L -1.14158e-06 4.5Z" stroke-width="0.2" stroke-miterlimit="10" transform="translate(56.56 5.25)" stroke="white"/>
</g>
<g id="Vector_10">
<path d="M 20.2 3.525C 18.4044 3.525 16.983 4.875 16.983 6.75C 16.983 8.55 18.4044 9.975 20.2 9.975C 21.9956 9.975 23.417 8.625 23.417 6.75C 23.417 4.8 21.9956 3.525 20.2 3.525ZM 20.2 8.625C 19.2274 8.625 18.4044 7.8 18.4044 6.675C 18.4044 5.55 19.2274 4.725 20.2 4.725C 21.1726 4.725 21.9956 5.475 21.9956 6.675C 21.9956 7.8 21.1726 8.625 20.2 8.625ZM 13.2422 3.525C 11.4467 3.525 10.0252 4.875 10.0252 6.75C 10.0252 8.55 11.4467 9.975 13.2422 9.975C 15.0378 9.975 16.4593 8.625 16.4593 6.75C 16.4593 4.8 15.0378 3.525 13.2422 3.525ZM 13.2422 8.625C 12.2696 8.625 11.4467 7.8 11.4467 6.675C 11.4467 5.55 12.2696 4.725 13.2422 4.725C 14.2148 4.725 15.0378 5.475 15.0378 6.675C 15.0378 7.8 14.2148 8.625 13.2422 8.625ZM 4.93778 4.5L 4.93778 5.85L 8.15481 5.85C 8.08 6.6 7.78074 7.2 7.40667 7.575C 6.95778 8.025 6.20963 8.55 4.93778 8.55C 2.91778 8.55 1.42148 6.975 1.42148 4.95C 1.42148 2.925 2.99259 1.35 4.93778 1.35C 5.98519 1.35 6.80815 1.8 7.40667 2.325L 8.37926 1.35C 7.5563 0.6 6.50889 2.86102e-07 5.01259 2.86102e-07C 2.31926 2.86102e-07 -1.14158e-06 2.25 -1.14158e-06 4.95C -1.14158e-06 7.65 2.31926 9.9 5.01259 9.9C 6.50889 9.9 7.5563 9.45 8.45407 8.475C 9.35185 7.575 9.65111 6.3 9.65111 5.325C 9.65111 5.025 9.65111 4.725 9.5763 4.5L 4.93778 4.5ZM 38.9037 5.55C 38.6044 4.8 37.8563 3.525 36.2104 3.525C 34.5644 3.525 33.2178 4.8 33.2178 6.75C 33.2178 8.55 34.5644 9.975 36.36 9.975C 37.7815 9.975 38.6793 9.075 38.9785 8.55L 37.9311 7.8C 37.557 8.325 37.1081 8.7 36.36 8.7C 35.6119 8.7 35.163 8.4 34.7889 7.725L 39.0533 5.925L 38.9037 5.55ZM 34.5644 6.6C 34.5644 5.4 35.537 4.725 36.2104 4.725C 36.7341 4.725 37.2578 5.025 37.4074 5.4L 34.5644 6.6ZM 31.0481 9.675L 32.4696 9.675L 32.4696 0.3L 31.0481 0.3L 31.0481 9.675ZM 28.8037 4.2C 28.4296 3.825 27.8311 3.45 27.083 3.45C 25.5119 3.45 24.0156 4.875 24.0156 6.675C 24.0156 8.475 25.437 9.825 27.083 9.825C 27.8311 9.825 28.4296 9.45 28.7289 9.075L 28.8037 9.075L 28.8037 9.525C 28.8037 10.725 28.1304 11.4 27.083 11.4C 26.26 11.4 25.6615 10.8 25.5119 10.275L 24.3148 10.8C 24.6889 11.625 25.5867 12.675 27.1578 12.675C 28.8037 12.675 30.1504 11.7 30.1504 9.375L 30.1504 3.675L 28.8037 3.675L 28.8037 4.2ZM 27.1578 8.625C 26.1852 8.625 25.3622 7.8 25.3622 6.675C 25.3622 5.55 26.1852 4.725 27.1578 4.725C 28.1304 4.725 28.8785 5.55 28.8785 6.675C 28.8785 7.8 28.1304 8.625 27.1578 8.625ZM 45.4126 0.3L 42.0459 0.3L 42.0459 9.675L 43.4674 9.675L 43.4674 6.15L 45.4126 6.15C 46.9837 6.15 48.48 5.025 48.48 3.225C 48.48 1.425 46.9837 0.3 45.4126 0.3ZM 45.4874 4.8L 43.4674 4.8L 43.4674 1.575L 45.4874 1.575C 46.5348 1.575 47.1333 2.475 47.1333 3.15C 47.0585 3.975 46.46 4.8 45.4874 4.8ZM 54.0911 3.45C 53.0437 3.45 51.9963 3.9 51.6222 4.875L 52.8941 5.4C 53.1933 4.875 53.6422 4.725 54.1659 4.725C 54.9141 4.725 55.5874 5.175 55.6622 5.925L 55.6622 6C 55.4378 5.85 54.8393 5.625 54.2407 5.625C 52.8941 5.625 51.5474 6.375 51.5474 7.725C 51.5474 9 52.6696 9.825 53.8667 9.825C 54.8393 9.825 55.2881 9.375 55.6622 8.925L 55.737 8.925L 55.737 9.675L 57.0837 9.675L 57.0837 6.075C 56.9341 4.425 55.6622 3.45 54.0911 3.45ZM 53.9415 8.625C 53.4926 8.625 52.8193 8.4 52.8193 7.8C 52.8193 7.05 53.6422 6.825 54.3156 6.825C 54.9141 6.825 55.2133 6.975 55.5874 7.125C 55.4378 8.025 54.6896 8.625 53.9415 8.625ZM 61.797 3.675L 60.2259 7.725L 60.1511 7.725L 58.5052 3.675L 57.0089 3.675L 59.4778 9.375L 58.0563 12.525L 59.4778 12.525L 63.2933 3.675L 61.797 3.675ZM 49.2281 9.675L 50.6496 9.675L 50.6496 0.3L 49.2281 0.3L 49.2281 9.675Z" transform="translate(30.7489 12.8252)" fill="white"/>
</g>
<g id="Vector_11">
<path d="M 0.299259 0C 0.0748145 0.225 0 0.6 0 1.05L 0 17.625C 0 18.075 0.14963 18.45 0.374074 18.675L 0.448889 18.75L 9.72593 9.45L 9.72593 9.375L 9.72593 9.3L 0.299259 0Z" transform="translate(7.4815 5.625)" fill="url(#paint0_linear)"/>
</g>
<g id="Vector_12">
<path d="M 3.06741 6.375L -2.85396e-07 3.3L -2.85396e-07 3.15L -2.85396e-07 3.075L 3.06741 1.43051e-07L 3.14222 0.0749997L 6.80815 2.175C 7.85556 2.775 7.85556 3.75 6.80815 4.35L 3.06741 6.375Z" transform="translate(17.1325 11.8501)" fill="url(#paint1_linear)"/>
</g>
<g id="Vector_13">
<path d="M 12.4941 3.15L 9.35185 0L -2.85396e-07 9.375C 0.374074 9.75 0.897778 9.75 1.57111 9.45L 12.4941 3.15Z" transform="translate(7.7808 15)" fill="url(#paint2_linear)"/>
</g>
<g id="Vector_14">
<path d="M 12.4941 6.47154L 1.57111 0.246544C 0.897778 -0.128456 0.374074 -0.053456 -2.85396e-07 0.321544L 9.35185 9.62154L 12.4941 6.47154Z" transform="translate(7.7808 5.37842)" fill="url(#paint3_linear)"/>
</g>
<g id="Vector_15" opacity="0.2">
<path d="M 12.4193 2.86102e-07L 1.57111 6.15C 0.972592 6.525 0.448889 6.45 0.0748148 6.15L -2.85396e-07 6.225L 0.0748148 6.3C 0.448889 6.6 0.972592 6.675 1.57111 6.3L 12.4193 2.86102e-07Z" transform="translate(7.7808 18.0752)" fill="black"/>
</g>
<g id="Vector_16" opacity="0.12">
<path d="M 0.299259 1.05C 0.0748145 0.825 0 0.45 0 -2.86102e-07L 0 0.075C 0 0.525 0.14963 0.900001 0.374074 1.125L 0.374074 1.05L 0.299259 1.05Z" transform="translate(7.4815 23.1748)" fill="black"/>
</g>
<g id="Vector_17" opacity="0.12">
<path d="M 3.74074 0.974999L 0 3.075L 0.0748151 3.15L 3.74074 1.05C 4.26444 0.75 4.48889 0.375 4.48889 0C 4.48889 0.375 4.18963 0.674999 3.74074 0.974999Z" transform="translate(20.2 15)" fill="black"/>
</g>
<g id="Vector_18" opacity="0.25">
<path d="M 1.87037 0.339607L 16.4593 8.66461C 16.9081 8.96461 17.2074 9.26461 17.2074 9.63961C 17.2074 9.26461 16.983 8.88961 16.4593 8.58961L 1.87037 0.264607C 0.822963 -0.335393 0 0.114607 0 1.31461L 0 1.38961C 0 0.264607 0.822963 -0.260393 1.87037 0.339607Z" transform="translate(7.4815 5.36035)" fill="white"/>
</g>
</g>
</g>
</g>
<defs>

<linearGradient id="paint0_linear" x2="1" gradientUnits="userSpaceOnUse" gradientTransform="matrix(-12.5557 12.5868 12.5557 12.5868 2.54999 -5.38605)">
<stop stop-color="#00A0FF"/>
<stop offset="0.00657445" stop-color="#00A1FF"/>
<stop offset="0.2601" stop-color="#00BEFF"/>
<stop offset="0.5122" stop-color="#00D2FF"/>
<stop offset="0.7604" stop-color="#00DFFF"/>
<stop offset="1" stop-color="#00E3FF"/>
</linearGradient>
<linearGradient id="paint1_linear" x2="1" gradientUnits="userSpaceOnUse" gradientTransform="translate(8.18048 -5.92271) scale(-18.1029 18.1477)">
<stop stop-color="#FFE000"/>
<stop offset="0.4087" stop-color="#FFBD00"/>
<stop offset="0.7754" stop-color="#FFA500"/>
<stop offset="1" stop-color="#FF9C00"/>
</linearGradient>
<linearGradient id="paint2_linear" x2="1" gradientUnits="userSpaceOnUse" gradientTransform="matrix(-17.0266 17.0687 17.0266 17.0687 2.28017 -6.81221)">
<stop stop-color="#FF3A44"/>
<stop offset="1" stop-color="#C31162"/>
</linearGradient>
<linearGradient id="paint3_linear" x2="1" gradientUnits="userSpaceOnUse" gradientTransform="matrix(7.60313 7.62188 7.60306 -7.62195 -6.12288 -1.43526)">
<stop stop-color="#32A071"/>
<stop offset="0.0685" stop-color="#2DA771"/>
<stop offset="0.4762" stop-color="#15CF74"/>
<stop offset="0.8009" stop-color="#06E775"/>
<stop offset="1" stop-color="#00F076"/>
</linearGradient>

</defs>
</svg>

